<?xml version="1.0" encoding="UTF-8"?>
<svg id="Capa_2" data-name="Capa 2" xmlns="http://www.w3.org/2000/svg" viewBox="0 0 649.14 338.27">
  <defs>
    <style>
      .cls-1 {
        stroke-width: 0px;
      }
    </style>
  </defs>
  <g id="Capa_1-2" data-name="Capa 1">
    <path class="cls-1" d="M169.13,0c14.8,0,27.71,1.5,38.74,4.49,11.02,3,20.94,6.78,29.76,11.34,8.81,4.57,16.77,9.53,23.86,14.88,7.09,5.36,13.94,10.39,20.55,15.12,6.61,4.72,13.3,8.82,20.08,12.28,6.77,3.47,14.25,5.51,22.44,6.14,8.19-.63,15.66-2.67,22.44-6.14,6.77-3.46,13.46-7.56,20.08-12.28,6.61-4.72,13.38-9.76,20.32-15.12,6.92-5.35,14.8-10.31,23.62-14.88,8.81-4.56,18.82-8.34,30-11.34,11.18-2.99,24.17-4.49,38.98-4.49,23.3,0,45.19,4.41,65.67,13.23,20.47,8.82,38.42,20.87,53.86,36.14,15.43,15.28,27.56,33.23,36.38,53.86,8.81,20.63,13.23,42.6,13.23,65.91s-4.41,45.2-13.23,65.67c-8.82,20.48-20.95,38.43-36.38,53.86-15.44,15.44-33.39,27.56-53.86,36.38-20.48,8.82-42.37,13.23-65.67,13.23-14.81,0-27.8-1.5-38.98-4.49-11.18-2.99-21.19-6.77-30-11.34-8.82-4.56-16.7-9.6-23.62-15.12-6.93-5.51-13.7-10.63-20.32-15.35-6.61-4.72-13.31-8.74-20.08-12.05-6.78-3.31-14.25-5.27-22.44-5.91-8.19.63-15.67,2.6-22.44,5.91-6.78,3.31-13.46,7.32-20.08,12.05-6.61,4.72-13.46,9.85-20.55,15.35-7.09,5.51-15.04,10.56-23.86,15.12-8.82,4.57-18.74,8.35-29.76,11.34-11.03,2.99-23.94,4.49-38.74,4.49-23.31,0-45.28-4.41-65.91-13.23-20.63-8.81-38.59-20.94-53.86-36.38-15.28-15.43-27.33-33.38-36.14-53.86C4.41,214.33,0,192.45,0,169.13s4.41-45.27,13.23-65.91c8.81-20.63,20.86-38.58,36.14-53.86,15.27-15.27,33.23-27.32,53.86-36.14C123.85,4.41,145.82,0,169.13,0ZM324.57,213.54c12.59,0,23.54,1.65,32.84,4.96,9.29,3.31,17.64,7.4,25.04,12.28,7.4,4.89,14.41,10.16,21.02,15.83,6.61,5.67,13.54,10.95,20.79,15.83,7.24,4.89,15.27,8.98,24.09,12.28,8.81,3.31,19.37,4.96,31.65,4.96,15.12,0,29.37-2.91,42.76-8.74,13.38-5.82,25.11-13.86,35.2-24.09,10.08-10.23,18.03-22.04,23.86-35.43,5.82-13.38,8.74-27.64,8.74-42.76s-2.92-29.37-8.74-42.76c-5.83-13.38-13.78-25.04-23.86-34.96-10.08-9.92-21.81-17.79-35.2-23.62-13.39-5.82-27.64-8.74-42.76-8.74-11.97,0-22.44,1.65-31.42,4.96-8.98,3.31-17.09,7.4-24.33,12.28-7.25,4.89-14.17,10.16-20.79,15.83-6.61,5.67-13.63,10.95-21.02,15.83-7.4,4.89-15.75,8.98-25.04,12.28-9.29,3.31-20.24,4.96-32.84,4.96s-23.55-1.65-32.83-4.96c-9.29-3.31-17.72-7.4-25.28-12.28-7.56-4.88-14.57-10.16-21.02-15.83-6.46-5.67-13.39-10.94-20.79-15.83-7.4-4.88-15.52-8.98-24.33-12.28-8.82-3.31-19.22-4.96-31.18-4.96-15.12,0-29.37,2.92-42.76,8.74-13.39,5.83-25.12,13.7-35.2,23.62-10.08,9.92-18.03,21.58-23.86,34.96-5.83,13.39-8.74,27.64-8.74,42.76s2.91,29.37,8.74,42.76c5.82,13.39,13.77,25.2,23.86,35.43,10.08,10.24,21.81,18.27,35.2,24.09,13.38,5.83,27.64,8.74,42.76,8.74,11.97,0,22.36-1.65,31.18-4.96,8.81-3.31,16.93-7.4,24.33-12.28,7.4-4.88,14.33-10.16,20.79-15.83,6.45-5.67,13.46-10.94,21.02-15.83,7.56-4.88,15.98-8.98,25.28-12.28,9.29-3.31,20.23-4.96,32.83-4.96Z"/>
  </g>
</svg>