<?xml version="1.0" encoding="UTF-8"?>
<svg id="Capa_2" data-name="Capa 2" xmlns="http://www.w3.org/2000/svg" viewBox="0 0 1920 338.27">
  <defs>
    <style>
      .cls-1 {
        stroke-width: 0px;
      }
    </style>
  </defs>
  <g id="Capa_1-2" data-name="Capa 1">
    <g>
      <path class="cls-1" d="M182.84,97.32c.31-6.3.31-12.12,0-17.48-.32-4.41-.94-8.5-1.89-12.28s-2.36-5.67-4.25-5.67c-3.47,0-6.78,4.02-9.92,12.05-3.15,8.03-8.03,20.55-14.65,37.56l-89.29,223.47H0L88.82,111.5c6.61-17.95,13.15-33.7,19.61-47.24,6.45-13.54,13.46-24.8,21.02-33.78,7.56-8.98,15.83-15.75,24.8-20.31,8.98-4.56,19.29-6.85,30.94-6.85,16.69,0,30.24,8.03,40.63,24.09s15.59,39.38,15.59,69.92v143.62c-.32,6.61-.32,12.6,0,17.95.31,4.41.78,8.43,1.42,12.05.63,3.62,2.04,5.43,4.25,5.43,2.83,0,5.59-2.99,8.27-8.98,2.67-5.98,6.38-14.96,11.1-26.93h-.47l51.5-128.98c6.61-17.95,13.15-33.7,19.61-47.24,6.45-13.54,13.46-24.8,21.02-33.78,7.56-8.98,15.83-15.75,24.8-20.31,8.98-4.56,19.29-6.85,30.94-6.85,16.69,0,30.24,8.03,40.63,24.09,10.39,16.06,15.59,39.38,15.59,69.92v237.64h-58.58V97.32c.31-6.3.31-12.12,0-17.48-.32-4.41-.94-8.5-1.89-12.28s-2.36-5.67-4.25-5.67c-3.47,0-6.78,4.02-9.92,12.05-3.15,8.03-8.03,20.55-14.65,37.56l-46.3,116.22c-6.61,17.95-13.15,33.62-19.61,47.01-6.46,13.39-13.39,24.57-20.79,33.54-7.4,8.98-15.59,15.67-24.57,20.08-8.98,4.41-19.3,6.61-30.95,6.61-16.7,0-30.16-8.11-40.39-24.33-10.24-16.22-15.35-39.45-15.35-69.69V97.32Z"/>
      <path class="cls-1" d="M686.45,0c14.8,0,27.71,1.5,38.74,4.49,11.02,3,20.94,6.78,29.76,11.34,8.81,4.57,16.77,9.53,23.86,14.88,7.09,5.36,13.94,10.39,20.55,15.12,6.61,4.72,13.3,8.82,20.08,12.28,6.77,3.47,14.25,5.51,22.44,6.14,8.19-.63,15.66-2.67,22.44-6.14,6.77-3.46,13.46-7.56,20.08-12.28,6.61-4.72,13.38-9.76,20.32-15.12,6.92-5.35,14.8-10.31,23.62-14.88,8.81-4.56,18.82-8.34,30-11.34,11.18-2.99,24.17-4.49,38.98-4.49,23.3,0,45.19,4.41,65.67,13.23,20.47,8.82,38.42,20.87,53.86,36.14,15.43,15.28,27.56,33.23,36.38,53.86,8.81,20.63,13.23,42.6,13.23,65.91s-4.41,45.2-13.23,65.67c-8.82,20.48-20.95,38.43-36.38,53.86-15.44,15.44-33.39,27.56-53.86,36.38-20.48,8.82-42.37,13.23-65.67,13.23-14.81,0-27.8-1.5-38.98-4.49-11.18-2.99-21.19-6.77-30-11.34-8.82-4.56-16.7-9.6-23.62-15.12-6.93-5.51-13.7-10.63-20.32-15.35-6.61-4.72-13.31-8.74-20.08-12.05-6.78-3.31-14.25-5.27-22.44-5.91-8.19.63-15.67,2.6-22.44,5.91-6.78,3.31-13.46,7.32-20.08,12.05-6.61,4.72-13.46,9.85-20.55,15.35-7.09,5.51-15.04,10.56-23.86,15.12-8.82,4.57-18.74,8.35-29.76,11.34-11.03,2.99-23.94,4.49-38.74,4.49-23.31,0-45.28-4.41-65.91-13.23-20.63-8.81-38.59-20.94-53.86-36.38-15.28-15.43-27.33-33.38-36.14-53.86-8.82-20.47-13.23-42.36-13.23-65.67s4.41-45.27,13.23-65.91c8.81-20.63,20.86-38.58,36.14-53.86,15.27-15.27,33.23-27.32,53.86-36.14,20.63-8.81,42.59-13.23,65.91-13.23ZM841.89,213.54c12.59,0,23.54,1.65,32.84,4.96,9.29,3.31,17.64,7.4,25.04,12.28,7.4,4.89,14.41,10.16,21.02,15.83,6.61,5.67,13.54,10.95,20.79,15.83,7.24,4.89,15.27,8.98,24.09,12.28,8.81,3.31,19.37,4.96,31.65,4.96,15.12,0,29.37-2.91,42.76-8.74,13.38-5.82,25.11-13.86,35.2-24.09,10.08-10.23,18.03-22.04,23.86-35.43,5.82-13.38,8.74-27.64,8.74-42.76s-2.92-29.37-8.74-42.76c-5.83-13.38-13.78-25.04-23.86-34.96-10.08-9.92-21.81-17.79-35.2-23.62-13.39-5.82-27.64-8.74-42.76-8.74-11.97,0-22.44,1.65-31.42,4.96-8.98,3.31-17.09,7.4-24.33,12.28-7.25,4.89-14.17,10.16-20.79,15.83-6.61,5.67-13.63,10.95-21.02,15.83-7.4,4.89-15.75,8.98-25.04,12.28-9.29,3.31-20.24,4.96-32.84,4.96s-23.55-1.65-32.83-4.96c-9.29-3.31-17.72-7.4-25.28-12.28-7.56-4.88-14.57-10.16-21.02-15.83-6.46-5.67-13.39-10.94-20.79-15.83-7.4-4.88-15.52-8.98-24.33-12.28-8.82-3.31-19.22-4.96-31.18-4.96-15.12,0-29.37,2.92-42.76,8.74-13.39,5.83-25.12,13.7-35.2,23.62-10.08,9.92-18.03,21.58-23.86,34.96-5.83,13.39-8.74,27.64-8.74,42.76s2.91,29.37,8.74,42.76c5.82,13.39,13.77,25.2,23.86,35.43,10.08,10.24,21.81,18.27,35.2,24.09,13.38,5.83,27.64,8.74,42.76,8.74,11.97,0,22.36-1.65,31.18-4.96,8.81-3.31,16.93-7.4,24.33-12.28,7.4-4.88,14.33-10.16,20.79-15.83,6.45-5.67,13.46-10.94,21.02-15.83,7.56-4.88,15.98-8.98,25.28-12.28,9.29-3.31,20.23-4.96,32.83-4.96Z"/>
      <path class="cls-1" d="M1534.49,237.17c0,18.27-2.05,33.62-6.14,46.06-4.1,12.45-9.14,22.52-15.12,30.24-5.99,7.72-12.45,13.23-19.37,16.54-6.93,3.31-13.23,4.96-18.9,4.96-11.66,0-21.73-1.42-30.24-4.25-8.5-2.83-16.54-8.03-24.1-15.59-7.56-7.56-15.2-18.11-22.91-31.65-7.72-13.54-16.62-31.02-26.69-52.44l-47.24-99.21c-2.52-5.03-5.51-11.41-8.98-19.13-3.47-7.71-7.17-15.27-11.1-22.68-3.94-7.4-7.88-13.77-11.81-19.13-3.94-5.35-7.4-8.34-10.39-8.98-3-.63-5.36,1.89-7.09,7.56-1.73,5.67-2.44,16.06-2.13,31.18v234.33h-58.58V100.63c0-18.26,2.04-33.62,6.14-46.06,4.09-12.44,9.05-22.44,14.88-30,5.82-7.56,12.2-12.99,19.13-16.3,6.92-3.31,13.23-4.96,18.9-4.96,11.65,0,21.73,1.42,30.24,4.25,8.5,2.83,16.54,8.03,24.1,15.59,7.56,7.56,15.19,18.03,22.91,31.42,7.71,13.39,16.61,30.79,26.69,52.2l49.13,102.99c2.83,6.3,6.06,13.31,9.69,21.02,3.62,7.72,7.4,14.96,11.34,21.73,3.93,6.78,7.71,12.45,11.34,17.01,3.62,4.57,6.85,6.78,9.69,6.61,2.83-.15,4.96-3.14,6.38-8.98,1.42-5.82,1.96-15.83,1.65-30V3.31h58.58v233.86Z"/>
      <path class="cls-1" d="M1750.86,0c23.3,0,45.19,4.41,65.67,13.23,20.47,8.82,38.42,20.87,53.86,36.14,15.43,15.28,27.56,33.23,36.38,53.86,8.81,20.63,13.23,42.6,13.23,65.91s-4.41,45.2-13.23,65.67c-8.82,20.48-20.95,38.43-36.38,53.86-15.44,15.44-33.39,27.56-53.86,36.38-20.48,8.82-42.36,13.23-65.67,13.23s-45.28-4.41-65.91-13.23c-20.63-8.81-38.59-20.94-53.86-36.38-15.28-15.43-27.33-33.38-36.14-53.86-8.82-20.47-13.23-42.36-13.23-65.67s4.41-45.27,13.23-65.91c8.81-20.63,20.86-38.58,36.14-53.86,15.27-15.27,33.23-27.32,53.86-36.14,20.62-8.81,42.59-13.23,65.91-13.23ZM1750.86,279.69c15.12,0,29.37-2.91,42.76-8.74,13.38-5.82,25.11-13.86,35.2-24.09,10.08-10.23,18.03-22.04,23.86-35.43,5.82-13.38,8.74-27.64,8.74-42.76s-2.92-29.37-8.74-42.76c-5.83-13.38-13.78-25.04-23.86-34.96-10.08-9.92-21.81-17.79-35.2-23.62-13.39-5.82-27.64-8.74-42.76-8.74s-29.37,2.92-42.76,8.74c-13.39,5.83-25.12,13.7-35.2,23.62-10.08,9.92-18.03,21.58-23.86,34.96-5.83,13.39-8.74,27.64-8.74,42.76s2.91,29.37,8.74,42.76c5.82,13.39,13.77,25.2,23.86,35.43,10.08,10.24,21.81,18.27,35.2,24.09,13.38,5.83,27.64,8.74,42.76,8.74Z"/>
    </g>
  </g>
</svg>